<svg width="152" height="16" viewBox="0 0 152 16" fill="none" xmlns="http://www.w3.org/2000/svg">
<path d="M9.59961 0C13.1338 0 16 2.86617 16 6.40039C15.9998 9.93443 13.1337 12.7998 9.59961 12.7998H3.2002V16H0V0H9.59961ZM28.7998 12.7998H38.4004V16H25.5996V0H28.7998V12.7998ZM65.5996 16H62.4004L60.7998 12.7998H51.2002L49.5996 16H46.4004L54.4004 0H57.5996L65.5996 16ZM76.7998 0L86.4004 11.2002V0H89.5996V16H86.4004L76.7998 4.7998V16H73.5996V0H76.7998ZM102.4 16H99.2002V0H102.4V16ZM128 3.2002H121.6V16H118.4V3.2002H112V0H128V3.2002ZM144 7.2002L148.8 0H152L145.6 9.59961V16H142.4V9.59961L136 0H139.2L144 7.2002ZM3.2002 9.59961H9.59961C11.3666 9.59961 12.7996 8.16732 12.7998 6.40039C12.7998 4.63328 11.3667 3.2002 9.59961 3.2002H3.2002V9.59961ZM52.7998 9.59961H59.2002L56 3.2002L52.7998 9.59961Z" fill="white"/>
</svg>
